<svg width="222" height="213" version="1.1" xmlns="http://www.w3.org/2000/svg" desc="Created with imagetracer.js version 1.2.6" ><path fill="rgb(30,30,35)" stroke="rgb(30,30,35)" stroke-width="1" opacity="0.996078431372549" d="M 42.5 30 L 101.5 30 L 110 36.5 L 112 40.5 L 112 95 L 94.5 86 L 90.5 86 Q 87 87 88 92.5 L 109 104.5 L 105.5 108 L 96.5 111 L 46.5 111 L 39.5 109 L 34 103.5 L 31 95.5 L 31 44.5 Q 32.5 36 38.5 32 L 42.5 30 Z " /><path fill="rgb(0,0,0)" stroke="rgb(0,0,0)" stroke-width="1" opacity="0" d="M 0 0 L 222 0 L 222 213 L 0 213 L 0 0 Z M 43 29 L 39 31 L 31 41 L 31 77 L 30 78 L 31 100 L 35 107 L 43 111 L 102 111 L 106 109 L 110 103 L 89 93 Q 88 88 91 87 L 97 88 L 111 96 L 113 96 L 113 42 L 111 37 L 102 29 L 43 29 Z M 126 90 Q 118 92 115 98 L 137 110 Q 138 114 134 115 L 115 105 L 112 105 L 112 159 L 115 166 Q 119 171 127 173 L 181 173 L 187 171 Q 193 167 195 160 L 195 104 L 191 96 L 182 90 L 126 90 Z " /><path fill="rgb(60,186,236)" stroke="rgb(60,186,236)" stroke-width="1" opacity="0.9568627450980393" d="M 105.5 31 L 106.5 33 L 105.5 31 Z " /><path fill="rgb(60,186,236)" stroke="rgb(60,186,236)" stroke-width="1" opacity="0.9568627450980393" d="M 108.5 34 L 110.5 37 L 108.5 34 Z " /><path fill="rgb(60,186,236)" stroke="rgb(60,186,236)" stroke-width="1" opacity="0.9568627450980393" d="M 30.5 77 L 31 82.5 L 30 82.5 L 30.5 77 Z " /><path fill="rgb(60,186,236)" stroke="rgb(60,186,236)" stroke-width="1" opacity="0.9568627450980393" d="M 97.5 88 L 98.5 90 L 97.5 88 Z " /><path fill="rgb(60,186,236)" stroke="rgb(60,186,236)" stroke-width="1" opacity="0.9568627450980393" d="M 88.5 89 L 89 91.5 L 88 91.5 L 88.5 89 Z " /><path fill="rgb(60,186,236)" stroke="rgb(60,186,236)" stroke-width="1" opacity="0.9568627450980393" d="M 100.5 90 L 105 92.5 L 103.5 92 Q 99.8 91.7 100.5 90 Z " /><path fill="rgb(60,186,236)" stroke="rgb(60,186,236)" stroke-width="1" opacity="0.9568627450980393" d="M 125.5 90 L 181.5 90 L 191 95.5 L 195 103.5 L 195 159.5 Q 192.9 167.4 186.5 171 L 180.5 173 L 126.5 173 Q 118.9 171.2 115 165.5 L 112 158.5 L 112 105 L 114.5 105 L 133.5 115 Q 137.5 114.5 137 109.5 L 115 97.5 Q 118.3 91.8 125.5 90 Z " /><path fill="rgb(60,186,236)" stroke="rgb(60,186,236)" stroke-width="1" opacity="0.9568627450980393" d="M 106.5 93 L 112 95.5 L 110.5 96 L 106.5 94 L 106.5 93 Z " /><path fill="rgb(60,186,236)" stroke="rgb(60,186,236)" stroke-width="1" opacity="0.9568627450980393" d="M 32.5 102 L 33.5 104 L 32.5 102 Z " /><path fill="rgb(60,186,236)" stroke="rgb(60,186,236)" stroke-width="1" opacity="0.9568627450980393" d="M 106.5 107 L 105.5 109 L 106.5 107 Z " /><path fill="rgb(60,186,236)" stroke="rgb(60,186,236)" stroke-width="1" opacity="0.9568627450980393" d="M 38.5 108 L 41 109.5 L 39.5 110 L 38.5 108 Z " /><path fill="rgb(71,71,73)" stroke="rgb(71,71,73)" stroke-width="1" opacity="0.8313725490196079" d="M 44.5 29 L 100 29.5 L 44.5 30 L 44.5 29 Z " /><path fill="rgb(71,71,73)" stroke="rgb(71,71,73)" stroke-width="1" opacity="0.8313725490196079" d="M 37.5 32 L 34.5 36 L 37.5 32 Z " /><path fill="rgb(71,71,73)" stroke="rgb(71,71,73)" stroke-width="1" opacity="0.8313725490196079" d="M 31.5 41 L 32 43.5 L 31 43.5 L 31.5 41 Z " /><path fill="rgb(71,71,73)" stroke="rgb(71,71,73)" stroke-width="1" opacity="0.8313725490196079" d="M 112.5 43 L 113 95.5 L 112 95.5 L 112.5 43 Z " /><path fill="rgb(71,71,73)" stroke="rgb(71,71,73)" stroke-width="1" opacity="0.8313725490196079" d="M 90.5 86 L 88.5 89 L 90.5 86 Z " /><path fill="rgb(71,71,73)" stroke="rgb(71,71,73)" stroke-width="1" opacity="0.8313725490196079" d="M 31.5 96 L 32 98.5 L 31 98.5 L 31.5 96 Z " /><path fill="rgb(71,71,73)" stroke="rgb(71,71,73)" stroke-width="1" opacity="0.8313725490196079" d="M 32.5 100 L 34 102.5 L 32 101.5 L 32.5 100 Z " /><path fill="rgb(71,71,73)" stroke="rgb(71,71,73)" stroke-width="1" opacity="0.8313725490196079" d="M 34.5 104 L 37.5 108 L 34.5 104 Z " /><path fill="rgb(71,71,73)" stroke="rgb(71,71,73)" stroke-width="1" opacity="0.8313725490196079" d="M 108.5 105 L 107.5 107 L 108.5 105 Z " /><path fill="rgb(71,71,73)" stroke="rgb(71,71,73)" stroke-width="1" opacity="0.8313725490196079" d="M 43.5 110 L 46 110.5 L 43.5 111 L 43.5 110 Z " /><path fill="rgb(71,71,73)" stroke="rgb(71,71,73)" stroke-width="1" opacity="0.8313725490196079" d="M 97.5 110 L 100 110.5 L 97.5 111 L 97.5 110 Z " /></svg>